<?xml version="1.0" encoding="UTF-8" standalone="no"?>
<!-- Created with Inkscape (http://www.inkscape.org/) -->

<svg
   width="103.16728mm"
   height="22.676649mm"
   viewBox="0 0 103.16728 22.676649"
   version="1.1"
   id="svg845"
   sodipodi:docname="running_steamdeck.svg"
   inkscape:version="1.1 (c68e22c387, 2021-05-23)"
   xmlns:inkscape="http://www.inkscape.org/namespaces/inkscape"
   xmlns:sodipodi="http://sodipodi.sourceforge.net/DTD/sodipodi-0.dtd"
   xmlns="http://www.w3.org/2000/svg"
   xmlns:svg="http://www.w3.org/2000/svg">
  <sodipodi:namedview
     id="namedview8"
     pagecolor="#ffffff"
     bordercolor="#666666"
     borderopacity="1.0"
     inkscape:pageshadow="2"
     inkscape:pageopacity="0.0"
     inkscape:pagecheckerboard="0"
     inkscape:document-units="mm"
     showgrid="false"
     inkscape:zoom="0.78631788"
     inkscape:cx="620.61414"
     inkscape:cy="159.60466"
     inkscape:window-width="3840"
     inkscape:window-height="2097"
     inkscape:window-x="-8"
     inkscape:window-y="-8"
     inkscape:window-maximized="1"
     inkscape:current-layer="svg845"
     fit-margin-top="0"
     fit-margin-left="0"
     fit-margin-right="0"
     fit-margin-bottom="0" />
  <defs
     id="defs842" />
  <g
     id="g973"
     transform="matrix(0.30849481,0,0,0.30849481,-1.4683504,-0.86145421)">
    <g
       id="layer1">
      <g
         aria-label="STEAMDECK"
         id="text3790"
         style="font-size:50.8px;line-height:1.25;font-family:STHupo;-inkscape-font-specification:STHupo;fill:#008000;stroke-width:0.264583">
        <path
           d="m 82.844867,29.147896 v 9.702799 q -1.1176,-0.4064 -1.524,-0.4064 -1.1684,0 -2.032,0.762 -0.8636,0.7112 -0.8636,2.032 0,1.2192 0.8636,2.6924 l 0.762,1.3208 q 2.0828,3.6576 2.0828,7.1628 0,4.5212 -3.5052,7.9248 -3.4544,3.4036 -8.636,3.4036 -2.5908,0 -4.7752,-0.9652 v -9.8044 q 1.3716,0.8636 2.7432,0.8636 1.27,0 2.0828,-0.7112 0.8128,-0.762 0.8128,-1.9304 0,-0.5588 -1.4224,-3.048 -2.2352,-4.0132 -2.2352,-7.9756 0,-4.775199 3.4036,-8.229599 3.4036,-3.4544 8.128,-3.4544 2.1336,0 4.1148,0.6604 z"
           id="path825" />
        <path
           d="m 102.70764,39.053895 v 24.13 H 92.649244 v -24.13 h -7.7216 v -9.753599 h 25.450796 v 9.753599 z"
           id="path827" />
        <path
           d="m 132.17161,42.508295 v 7.5184 h -6.5532 q -1.3208,0 -1.8796,0.4064 -0.5588,0.4064 -0.5588,1.3208 0,1.0668 0.508,1.4224 0.5588,0.3556 2.3876,0.3556 h 6.7564 v 9.652 h -7.9248 q -5.588,0 -8.5344,-2.6416 -2.9464,-2.6924 -2.9464,-7.7216 v -13.2588 q 0,-4.876799 2.794,-7.569199 2.794,-2.6924 7.874,-2.6924 h 8.7376 v 9.753599 h -6.4516 q -2.5908,0 -2.5908,1.6764 0,1.0668 0.6604,1.4224 0.7112,0.3556 2.1844,0.3556 z"
           id="path829" />
        <path
           d="m 150.86593,46.216695 v 8.89 h -2.8448 v 8.0772 h -10.1092 v -21.5392 q 0,-6.248399 3.4036,-9.702799 3.4036,-3.4544 9.6012,-3.4544 5.9436,0 8.7884,3.1496 2.8448,3.1496 2.8448,9.651999 v 21.8948 h -10.0584 v -21.2344 q 0,-1.9304 -0.508,-2.6924 -0.4572,-0.8128 -1.6256,-0.8128 -2.3368,0 -2.3368,3.5052 v 4.2672 z"
           id="path831" />
        <path
           d="m 167.98549,63.183895 v -24.4348 q 0,-4.521199 2.7432,-7.365999 2.794,-2.8956 7.1628,-2.8956 5.2324,0 8.0264,4.7752 1.524,-2.4892 3.5052,-3.6068 2.032,-1.1684 4.9784,-1.1684 4.572,0 7.0104,2.8956 2.4384,2.8448 2.4384,8.280399 v 23.5204 h -10.1092 v -22.0472 q 0,-1.4732 -0.254,-2.0828 -0.254,-0.6096 -1.016,-0.6096 -1.524,0 -1.524,2.54 v 22.1996 h -10.0584 v -22.0472 q 0,-1.4224 -0.254,-2.032 -0.254,-0.6604 -1.0668,-0.6604 -1.4732,0 -1.4732,2.6924 v 22.0472 z"
           id="path833" />
        <path
           d="m 220.00461,39.053895 v 24.13 h -10.0584 V 29.300296 h 13.1064 q 8.9916,0 14.1732,4.5212 5.1816,4.521199 5.1816,12.141199 0,7.6708 -4.9784,12.5476 -4.9784,4.826 -12.8016,4.826 -0.3048,0 -2.9972,-0.1016 v -9.9568 h 1.6256 q 8.8392,0 8.8392,-7.3152 0,-6.9088 -8.6868,-6.9088 z"
           id="path835" />
        <path
           d="m 265.16572,42.508295 v 7.5184 h -6.5532 q -1.3208,0 -1.8796,0.4064 -0.5588,0.4064 -0.5588,1.3208 0,1.0668 0.508,1.4224 0.5588,0.3556 2.3876,0.3556 h 6.7564 v 9.652 h -7.9248 q -5.588,0 -8.5344,-2.6416 -2.9464,-2.6924 -2.9464,-7.7216 v -13.2588 q 0,-4.876799 2.794,-7.569199 2.794,-2.6924 7.874,-2.6924 h 8.7376 v 9.753599 h -6.4516 q -2.5908,0 -2.5908,1.6764 0,1.0668 0.6604,1.4224 0.7112,0.3556 2.1844,0.3556 z"
           id="path837" />
        <path
           d="m 294.52804,46.369095 10.5156,0.3048 q -1.1176,8.2804 -5.7404,12.7 -4.6228,4.3688 -11.9888,4.3688 -7.6708,0 -12.7508,-4.9784 -5.0292,-4.9784 -5.0292,-12.4968 0,-7.5692 5.1816,-12.649199 5.1816,-5.1308 12.8524,-5.1308 6.5024,0 11.176,3.81 4.6736,3.81 6.1976,10.972799 l -10.7696,0.762 q -1.778,-5.588 -6.858,-5.588 -3.2004,0 -5.334,2.1844 -2.0828,2.1844 -2.0828,5.6388 0,3.302 2.032,5.4356 2.0828,2.0828 5.2324,2.0828 6.5532,0 7.366,-7.4168 z"
           id="path839" />
        <path
           d="m 339.18118,29.300296 -8.89,15.392399 8.89,18.4912 h -11.3284 l -7.6708,-18.6944 8.6868,-15.189199 z m -19.304,0 v 33.883599 h -10.0584 V 29.300296 Z"
           id="path841" />
      </g>
      <path
         style="fill:#008000;stroke:#000000;stroke-width:0.114288px;stroke-linecap:butt;stroke-linejoin:miter;stroke-opacity:1"
         d="M 19.973626,45.22354 4.8624767,57.096589 39.09386,76.216823 64.844497,2.8197973 33.234433,60.797278 Z"
         id="path20197" />
    </g>
  </g>
</svg>
